<svg width="40" height="40" viewBox="0 0 40 40" fill="none" xmlns="http://www.w3.org/2000/svg">
<path d="M7.6123 4.29834C11.2003 1.46761 15.6495 -0.0489104 20.2194 0.00120332C24.7894 0.0513171 29.2043 1.66504 32.7293 4.57377L28.0653 10.226C25.8318 8.38301 23.0346 7.36056 20.1391 7.32881C17.2436 7.29706 14.4246 8.25792 12.1512 10.0515L7.6123 4.29834Z" fill="#4DB6AC"/>
<path d="M39.9048 18.0511C40.1771 20.8322 39.8636 23.6394 38.9845 26.2919C38.1055 28.9444 36.6803 31.3832 34.8009 33.4511C32.9216 35.5191 30.6297 37.1703 28.0731 38.2982C25.5166 39.4262 22.752 40.0059 19.9576 40C17.1633 39.9941 14.4012 39.4026 11.8494 38.2639C9.29761 37.1251 7.01278 35.4642 5.1422 33.3883C3.27162 31.3124 1.85681 28.8676 0.988976 26.2114C0.12114 23.5552 -0.180459 20.7467 0.103624 17.9668L7.39372 18.7118C7.21373 20.4731 7.40482 22.2526 7.95468 23.9355C8.50453 25.6185 9.40096 27.1675 10.5861 28.4828C11.7713 29.7981 13.219 30.8504 14.8358 31.5719C16.4526 32.2935 18.2027 32.6682 19.9732 32.6719C21.7436 32.6757 23.4953 32.3084 25.1151 31.5937C26.735 30.8791 28.1871 29.8329 29.3778 28.5226C30.5686 27.2124 31.4716 25.6672 32.0286 23.9866C32.5855 22.306 32.7842 20.5273 32.6116 18.7652L39.9048 18.0511Z" fill="#4DB6AC"/>
</svg>
