<svg width="890" height="491" viewBox="0 0 890 491" fill="none" xmlns="http://www.w3.org/2000/svg">
<path d="M887.882 1.87647C893.941 63.755 886.966 126.216 867.406 185.234C847.846 244.252 816.137 298.516 774.321 344.527C732.505 390.539 681.511 427.278 624.627 452.375C567.743 477.472 506.231 490.371 444.057 490.239C381.883 490.107 320.426 476.948 263.649 451.61C206.872 426.272 156.034 389.318 114.414 343.129C72.7936 296.94 41.3141 242.543 22.0047 183.443C2.69535 124.343 -4.01521 61.8523 2.30564 0L164.51 16.5761C160.505 55.7655 164.757 95.3593 176.992 132.805C189.226 170.25 209.171 204.717 235.542 233.982C261.912 263.247 294.123 286.661 330.097 302.715C366.07 318.769 405.009 327.107 444.403 327.19C483.796 327.274 522.77 319.101 558.811 303.2C594.853 287.298 627.162 264.021 653.657 234.868C680.151 205.715 700.242 171.333 712.635 133.94C725.028 96.5464 729.448 56.9711 725.609 17.765L887.882 1.87647Z" fill="url(#paint0_linear_139_762)"/>
<defs>
<linearGradient id="paint0_linear_139_762" x1="445" y1="-60.7599" x2="445" y2="490.24" gradientUnits="userSpaceOnUse">
<stop stop-color="white"/>
<stop offset="1" stop-color="#DBF0EE"/>
</linearGradient>
</defs>
</svg>
