<svg width="792" height="448" viewBox="0 0 792 448" fill="none" xmlns="http://www.w3.org/2000/svg">
<g opacity="0.8" filter="url(#filter0_f_506_19139)">
<path d="M778.172 13.6192C783.401 67.0156 777.381 120.915 760.503 171.842C743.625 222.77 716.261 269.596 680.178 309.3C644.094 349.005 600.091 380.708 551.004 402.365C501.918 424.021 448.838 435.152 395.186 435.038C341.535 434.924 288.503 423.569 239.508 401.704C190.514 379.84 146.645 347.951 110.73 308.094C74.8152 268.236 47.6508 221.295 30.9883 170.297C14.3259 119.298 8.53519 65.3737 13.9896 12L153.959 26.3039C150.503 60.1213 154.172 94.2876 164.73 126.6C175.287 158.913 192.498 188.654 215.254 213.908C238.01 239.161 265.805 259.366 296.847 273.219C327.89 287.073 361.491 294.267 395.484 294.34C429.478 294.412 463.109 287.359 494.21 273.638C525.311 259.916 553.192 239.829 576.054 214.672C598.917 189.516 616.254 159.847 626.948 127.58C637.642 95.312 641.456 61.1616 638.143 27.3298L778.172 13.6192Z" fill="url(#paint0_linear_506_19139)"/>
</g>
<defs>
<filter id="filter0_f_506_19139" x="0" y="0" width="792" height="447.039" filterUnits="userSpaceOnUse" color-interpolation-filters="sRGB">
<feFlood flood-opacity="0" result="BackgroundImageFix"/>
<feBlend mode="normal" in="SourceGraphic" in2="BackgroundImageFix" result="shape"/>
<feGaussianBlur stdDeviation="6" result="effect1_foregroundBlur_506_19139"/>
</filter>
<linearGradient id="paint0_linear_506_19139" x1="396" y1="12" x2="396" y2="453.161" gradientUnits="userSpaceOnUse">
<stop stop-color="white" stop-opacity="0.08"/>
<stop offset="1" stop-color="white" stop-opacity="0.45"/>
</linearGradient>
</defs>
</svg>
