<svg width="88" height="88" viewBox="0 0 88 88" fill="none" xmlns="http://www.w3.org/2000/svg">
<path d="M74.3444 27.84V39.5538C74.3503 40.9864 73.7338 42.2606 72.4831 43.3761V43.0884C72.4185 42.1255 71.7668 41.327 70.522 40.6928C67.1869 39.2719 63.576 38.1681 59.6949 37.3813C56.8354 36.8 53.8996 36.4066 50.8875 36.207C50.4472 36.1776 50.0009 36.1483 49.5547 36.1306V27.7637C49.5606 29.7483 50.7759 31.4393 53.2009 32.8367C53.7117 33.1303 54.2519 33.4004 54.8097 33.6352C56.8823 34.5042 59.2779 34.9387 61.9847 34.9446C64.668 34.9505 67.0402 34.5277 69.0894 33.6822C69.6707 33.4473 70.2226 33.1773 70.751 32.8719C73.1466 31.4862 74.3444 29.8128 74.3444 27.84Z" stroke="#D0D1DC" stroke-linecap="round" stroke-linejoin="round"/>
<path d="M74.3444 27.8099V27.8392C74.3444 29.8121 73.1466 31.4854 70.751 32.8711C70.2227 33.1765 69.6707 33.4465 69.0895 33.6814C67.0403 34.5269 64.6681 34.9497 61.9848 34.9438C59.278 34.9379 56.8825 34.5034 54.8098 33.6344C54.252 33.3996 53.7118 33.1295 53.201 32.8359C50.7761 31.4385 49.5606 29.7475 49.5548 27.7629C49.543 25.7783 50.7408 24.0931 53.1422 22.7016C55.5496 21.3159 58.4737 20.6231 61.9085 20.6289C65.3493 20.6348 68.2792 21.3394 70.6983 22.7368C73.1173 24.1342 74.3327 25.8253 74.3444 27.8099Z" stroke="#D0D1DC" stroke-linecap="round" stroke-linejoin="round"/>
<path d="M72.4833 43.088V43.3875C72.4187 44.2154 71.8609 44.9376 70.8216 45.5365L63.1885 49.946L55.1798 54.5669C54.0172 55.2422 52.6374 55.5944 51.0462 55.6179C49.455 55.6473 48.04 55.3478 46.7893 54.7078C44.0767 53.5629 41.2055 52.5999 38.1641 51.8132C35.1226 51.0264 31.9577 50.4803 28.6638 50.1809C27.9357 50.1398 27.2546 50.0282 26.6322 49.8579C26.0098 49.6877 25.4462 49.4587 24.9295 49.1592C24.4187 48.8656 24.0135 48.5368 23.72 48.1787C23.4205 47.8146 23.2385 47.4271 23.1622 47.0044C22.6396 45.102 21.7001 43.2759 20.3379 41.5203C20.1853 41.3266 20.0326 41.1328 19.8799 40.9449C18.5999 39.4007 17.085 37.9328 15.3177 36.5412C14.2608 35.8484 13.7383 35.0675 13.7383 34.1926V34.081C13.7911 33.1651 14.3958 32.3666 15.5643 31.6913L31.2062 22.6667C32.3688 21.9915 33.7838 21.6744 35.4513 21.7097C37.1129 21.739 38.4987 22.1207 39.5967 22.837C42.0568 24.7629 43.971 26.8473 45.3332 29.0902C46.7012 31.3273 47.4645 33.6524 47.623 36.0598C48.2689 36.0715 48.9148 36.095 49.5548 36.1302C50.0011 36.1478 50.4473 36.1772 50.8877 36.2066C53.8998 36.4062 56.8356 36.7996 59.695 37.3809C63.5761 38.1677 67.1871 39.2715 70.5221 40.6924C71.7669 41.3266 72.4187 42.1251 72.4833 43.088Z" stroke="#D0D1DC" stroke-linecap="round" stroke-linejoin="round"/>
<path d="M72.4832 43.3882V54.8319C72.5419 55.789 71.99 56.611 70.8215 57.2803L55.1798 66.3108C54.0172 66.986 52.6374 67.3383 51.0462 67.3617C49.455 67.3911 48.04 67.0917 46.7893 66.4517C44.0766 65.3068 41.2055 64.3438 38.164 63.557C35.1225 62.7702 31.9576 62.2241 28.6637 61.9247C27.9356 61.8836 27.2546 61.772 26.6322 61.6017C26.0098 61.4315 25.4462 61.2025 24.9295 60.903C24.4187 60.6095 24.0135 60.2807 23.7199 59.9225C23.4204 59.5585 23.2385 59.171 23.1622 58.7482C22.6396 56.8458 21.7001 55.0197 20.3379 53.2641C18.9757 51.5085 17.3023 49.8469 15.3177 48.2851C14.2138 47.5629 13.6913 46.7467 13.7383 45.8249V34.1934C13.7383 35.0682 14.2608 35.8491 15.3177 36.542C17.085 37.9335 18.5999 39.4014 19.8799 40.9457C20.0326 41.1335 20.1852 41.3272 20.3379 41.521C21.7001 43.2766 22.6396 45.1027 23.1622 47.0051C23.2385 47.4279 23.4204 47.8154 23.7199 48.1794C24.0135 48.5376 24.4187 48.8663 24.9295 49.1599C25.4462 49.4594 26.0098 49.6883 26.6322 49.8586C27.2546 50.0289 27.9356 50.1405 28.6637 50.1816C31.9576 50.481 35.1225 51.0271 38.164 51.8139C41.2055 52.6007 44.0766 53.5636 46.7893 54.7086C48.04 55.3486 49.455 55.648 51.0462 55.6186C52.6374 55.5951 54.0172 55.2429 55.1798 54.5677L63.1885 49.9468L70.8215 45.5372C71.8608 44.9383 72.4186 44.2161 72.4832 43.3882Z" stroke="#D0D1DC" stroke-linecap="round" stroke-linejoin="round"/>
</svg>
